<svg
 xmlns="http://www.w3.org/2000/svg"
 xmlns:xlink="http://www.w3.org/1999/xlink"
 width="63px" height="41px">
<path fill-rule="evenodd"  fill="rgb(255, 255, 255)"
 d="M55.786,18.122 L55.786,23.055 C55.786,28.977 51.027,33.798 45.179,33.798 L40.329,33.798 C39.442,37.912 35.823,41.002 31.499,41.002 C27.176,41.002 23.556,37.912 22.668,33.798 L17.725,33.798 C11.877,33.798 7.118,28.977 7.118,23.055 L7.118,18.098 C3.053,17.202 -0.002,13.533 -0.002,9.153 C-0.002,4.102 4.055,-0.007 9.041,-0.007 C14.027,-0.007 18.084,4.102 18.084,9.153 C18.084,13.601 14.934,17.316 10.776,18.138 L10.776,23.055 C10.776,26.936 13.894,30.093 17.725,30.093 L22.626,30.093 C23.320,26.480 26.117,23.624 29.670,22.881 L29.670,18.122 C25.558,17.263 22.456,13.568 22.456,9.153 C22.456,4.102 26.513,-0.007 31.499,-0.007 C36.485,-0.007 40.542,4.102 40.542,9.153 C40.542,13.568 37.440,17.263 33.328,18.122 L33.328,22.881 C36.881,23.624 39.679,26.480 40.372,30.094 L45.179,30.094 C49.010,30.094 52.128,26.936 52.128,23.055 L52.128,18.122 C48.016,17.264 44.914,13.568 44.914,9.153 C44.914,4.102 48.971,-0.007 53.957,-0.007 C58.943,-0.007 63.000,4.102 63.000,9.153 C63.000,13.568 59.899,17.264 55.786,18.122 ZM14.427,9.153 C14.427,6.144 12.011,3.697 9.041,3.697 C6.071,3.697 3.656,6.144 3.656,9.153 C3.656,12.161 6.072,14.607 9.041,14.607 C12.011,14.607 14.427,12.160 14.427,9.153 ZM36.884,9.153 C36.884,6.144 34.469,3.697 31.499,3.697 C28.529,3.697 26.114,6.144 26.114,9.153 C26.114,12.161 28.530,14.607 31.499,14.607 C34.468,14.607 36.884,12.160 36.884,9.153 ZM31.499,26.389 C28.529,26.389 26.114,28.835 26.114,31.843 C26.114,34.851 28.530,37.297 31.499,37.297 C34.468,37.297 36.884,34.850 36.884,31.843 C36.884,28.835 34.469,26.389 31.499,26.389 ZM53.957,3.697 C50.987,3.697 48.571,6.144 48.571,9.153 C48.571,12.161 50.987,14.607 53.957,14.607 C56.926,14.607 59.343,12.160 59.343,9.153 C59.343,6.144 56.927,3.697 53.957,3.697 Z"/>
</svg>
