<svg
 xmlns="http://www.w3.org/2000/svg"
 xmlns:xlink="http://www.w3.org/1999/xlink"
 width="57px" height="51px">
<path fill-rule="evenodd"  fill="rgb(255, 255, 255)"
 d="M28.500,51.010 L27.267,50.142 C26.153,49.359 0.000,30.783 0.000,15.463 C0.000,6.209 5.939,-0.008 14.778,-0.008 C19.497,-0.008 24.397,2.345 28.500,6.521 C32.603,2.345 37.501,-0.008 42.222,-0.008 C51.061,-0.008 57.000,6.209 57.000,15.463 C57.000,30.783 30.848,49.359 29.734,50.142 L28.500,51.010 ZM14.778,4.117 C6.995,4.117 4.222,9.978 4.222,15.463 C4.222,25.841 20.716,40.163 28.500,45.904 C36.283,40.163 52.778,25.841 52.778,15.463 C52.778,9.978 50.005,4.117 42.222,4.117 C38.535,4.117 34.590,6.140 31.215,9.719 C34.060,13.596 35.782,17.935 35.888,21.593 C35.955,23.877 35.045,26.194 33.454,27.793 C32.102,29.153 30.342,29.903 28.500,29.903 C26.658,29.903 24.899,29.153 23.547,27.795 C21.956,26.196 21.047,23.878 21.112,21.593 C21.218,17.935 22.940,13.595 25.784,9.719 C22.411,6.140 18.466,4.117 14.778,4.117 ZM28.500,13.152 C26.581,16.067 25.405,19.187 25.332,21.709 C25.298,22.885 25.775,24.115 26.574,24.918 C27.710,26.057 29.294,26.057 30.427,24.917 C31.227,24.114 31.702,22.884 31.668,21.709 C31.595,19.188 30.420,16.067 28.500,13.152 Z"/>
</svg>
