<svg
 xmlns="http://www.w3.org/2000/svg"
 xmlns:xlink="http://www.w3.org/1999/xlink"
 width="67px" height="67px">
<path fill-rule="evenodd"  fill="rgb(255, 255, 255)"
 d="M33.500,0.000 C15.028,0.000 0.000,15.028 0.000,33.500 C0.000,50.330 12.477,64.296 28.665,66.646 C30.164,66.864 31.694,66.982 33.249,66.994 C33.333,66.994 33.416,67.000 33.500,67.000 C39.725,67.000 45.555,65.288 50.554,62.318 C51.759,61.603 52.913,60.812 54.015,59.956 C61.907,53.822 67.000,44.247 67.000,33.500 C67.000,15.028 51.972,0.000 33.500,0.000 ZM6.559,21.002 L20.838,28.215 L21.212,27.395 L8.378,17.673 C10.553,14.233 13.411,11.267 16.764,8.971 L25.974,22.526 L26.816,22.040 L20.027,7.037 C23.562,5.230 27.503,4.109 31.676,3.854 L33.033,20.498 L33.955,20.498 L35.469,3.865 C39.632,4.139 43.562,5.275 47.086,7.095 L40.329,21.973 L41.097,22.414 L50.339,9.045 C53.668,11.345 56.504,14.305 58.662,17.736 L45.375,26.630 L45.834,27.425 L60.471,21.070 C62.086,24.560 63.042,28.412 63.181,32.470 L45.418,32.470 C44.505,26.747 39.548,22.355 33.572,22.355 C27.596,22.355 22.640,26.747 21.726,32.470 L3.819,32.470 C3.959,28.386 4.926,24.510 6.559,21.002 ZM41.561,32.470 L30.977,32.470 L30.963,32.437 C30.948,32.443 30.920,32.454 30.884,32.470 L25.583,32.470 C26.443,28.851 29.694,26.148 33.572,26.148 C37.450,26.148 40.701,28.851 41.561,32.470 ZM3.926,36.263 L28.674,36.263 C23.722,38.791 19.305,42.304 19.055,47.269 C18.824,51.836 22.093,56.710 25.554,61.870 C25.623,61.973 25.691,62.075 25.760,62.178 C13.981,58.995 5.082,48.737 3.926,36.263 ZM33.500,63.207 C32.625,63.207 31.760,63.161 30.904,63.087 C30.177,61.956 29.433,60.845 28.704,59.758 C25.604,55.136 22.166,49.676 22.260,46.363 C22.418,40.832 28.973,37.313 31.090,36.263 L34.051,36.263 C30.644,39.482 29.863,42.275 29.846,44.441 C29.821,47.536 32.243,50.021 35.167,52.053 C39.166,54.831 42.457,57.285 46.755,60.075 C42.761,62.075 38.262,63.207 33.500,63.207 ZM50.468,57.863 C45.767,55.087 41.824,52.362 37.327,49.471 C36.223,48.762 33.727,46.934 32.967,44.638 C32.040,41.833 32.770,39.146 36.247,36.262 L63.074,36.263 C62.246,45.193 57.450,52.986 50.468,57.863 Z"/>
</svg>
